Patient4_TMGait_0pt4_01_left_13_EMG.mot
version=1
nRows=16
nColumns=33
inDegrees=no
endheader
time	1LAddLong	2LGlutMax	3LGlutMed	4LIliopsoas	5LSemiMemb	6LBicFemLong	7LRecFem	8LVastMed	9LVastLat	10LGasMed	11LTibAnt	12lTibPost	13LPeroneusLong	14LSol	15LExtDigLong	16LFlexDigLong	17RAddLong	18RGlutMax	19RGlutMed	20RIliopsoas	21RSemiMemb	22RBicFemLong	23RRecFem	24RVastMed	25RVastLat	26RGasMed	27RTibAnt	28RTibPost	29RPeroneusLong	30RSol	31RExtDigLong	32RFlexDigLong
17.428	-0.003967	-0.042725	-0.058594	0.011139	-0.005341	0.086212	-0.15945	0.008087	0.013885	0.00473	-0.025787	-0.008087	-0.006104	-0.14725	0.021057	-0.003815	0.016174	-0.061646	0.089417	0.003052	-0.04425	0.020905	0.044708	-0.11993	-0.25207	-0.00061	0.6012	-0.011749	-0.12482	-0.58151	0.001221	0.001221
17.429	-0.006256	-0.075378	-0.019226	-0.001831	-0.027924	0.077057	-0.16037	0.012512	0.022125	-0.014191	-0.016174	-0.010681	-0.007324	-0.099182	-0.072937	0.014496	0.022888	-0.057983	0.14023	0.015259	0.00473	-0.027771	0.11353	-0.043793	-0.23575	-0.007019	0.95215	-0.002136	-0.29694	0.073395	-0.002136	-0.002747
17.43	-0.000153	-0.065765	-0.001678	0.008392	-0.044403	0.013275	-0.13489	0.006866	0.015411	-0.013275	-0.005646	-0.007324	-0.00351	-0.04303	-0.12772	0.015411	0.034332	-0.13031	0.023041	0.018616	0.005493	-0.05127	0.20905	-0.037384	-0.14679	-0.003662	0.98297	-0.009613	-0.28076	0.57159	0.000458	0.006409
17.431	0.016022	-0.049744	-0.031738	0.004425	-0.054779	0.015411	-0.16525	0.001678	0.028381	-0.030212	0.032806	-0.007477	-0.01236	-0.050049	0.10849	0.026093	0.039368	-0.10193	0.042267	0.015869	0.016937	-0.036163	0.18417	0.11475	-0.010071	-0.026855	0.88165	-0.012512	-0.38162	0.54489	0.001831	-0.005493
17.432	0.022278	-0.08606	-0.028687	0.003662	-0.055237	0.063629	-0.159	-0.001221	0.020752	-0.039978	-0.049744	-0.003815	-0.023956	-0.029755	0.08606	0.032654	0.035706	-0.11459	0.23941	0.008698	0.009308	0.020142	-0.018768	0.1947	0.23239	-0.030975	0.33997	-0.017548	-0.33493	0.19775	0.001984	-0.003662
17.433	0.031586	-0.047455	0.024719	-0.015411	0.018921	0.045929	-0.15945	0.007172	0.02655	-0.020294	-0.11734	0.001984	-0.027771	-0.034943	-0.045166	0.025024	0.00824	-0.1236	0.12222	0.044708	-0.092163	0.055542	-0.20645	0.17441	0.18082	-0.016022	-0.4924	-0.00946	-0.088959	-0.19455	-0.001221	-0.010223
17.434	0.016022	-0.066528	0.009308	0.005798	0.032043	0.06073	-0.1413	0.010681	0.024719	-0.016022	-0.059357	-0.003357	-0.036316	-0.042267	-0.069885	0.029449	-0.002136	-0.14969	-0.23727	0.00946	-0.10025	0.035095	-0.15152	0.13825	0.13306	0.000916	-0.35889	-0.01358	0.056915	-0.39795	-0.000305	-0.007935
17.435	0.016632	-0.064087	-0.036469	0.028687	-0.017242	0.039673	-0.14053	0.006256	0.025177	-0.030975	0.027161	-0.00061	-0.045166	-0.015259	0.04425	0.025177	0.015717	-0.22247	-0.20721	-0.036011	-0.016327	0.003662	-0.077515	0.059967	0.10071	-0.014343	-0.2417	-0.009766	0.17563	-0.3241	0.001068	-0.009766
17.436	0.027161	-0.083923	-0.059814	0.029144	0.022278	0.017548	-0.15732	0	0.03006	-0.041656	0.18173	-0.001068	-0.066223	-0.005798	-0.040436	0.026093	0.007782	-0.25482	0.18585	-0.090485	-0.005493	-0.006104	-0.043488	-0.066223	0.076141	-0.01236	0.082703	-0.008698	0.19562	-0.025177	-0.00061	-0.011292
17.437	0.018616	-0.094147	-0.044861	-0.014343	0.052338	0.027008	-0.15869	0.005798	0.031891	-0.025024	0.12497	-0.00351	-0.012054	-0.02182	0.15106	0.018463	0.019226	-0.26581	-0.071106	-0.074005	-0.023041	0.008545	-0.029144	-0.076904	0.057983	-0.014343	0.33279	-0.021057	0.012665	-0.12482	0	-0.000916
17.438	0.019379	-0.092926	-0.043182	-0.010681	0.005951	0.055237	-0.14481	-0.002899	0.038757	-0.019226	0.006104	-0.000305	-0.040131	-0.047913	-0.045929	0.024261	0.012665	-0.32044	-0.36789	-0.017395	-0.007629	0.01709	0.021515	-0.071106	0.058899	-0.014038	0.61127	-0.028381	-0.13504	-0.22827	-0.002136	-0.022888
17.439	0.02243	-0.10696	-0.028534	-0.016632	-0.007019	0.017395	-0.15854	0.005188	0.033112	-0.045319	0.030365	0.000916	-0.041199	-0.025024	-0.16647	0.001373	0.024872	-0.31601	-0.59769	0.067444	-0.005035	-0.012054	-0.011902	-0.062103	0.04776	-0.014496	0.24139	0.045166	-0.14771	-0.23346	0.001526	-0.022888
17.44	0.020599	-0.098877	-0.042267	-0.001373	0.001221	-0.050354	-0.15717	0.001984	0.045624	-0.065918	0.024567	-0.002899	-0.019989	0.019379	0.028381	-0.001831	0.023804	-0.31326	-0.59677	0.072784	-0.016479	-0.014343	0.016937	-0.076141	0.049286	-0.019836	-0.74738	0.004272	-0.15152	-0.242	0.003052	-0.023193
17.441	0.028839	-0.11795	-0.075378	0.001526	0.023499	-0.079956	-0.14282	0.001526	0.038452	-0.056458	0.004272	0.003967	0.012207	-0.02655	-0.081024	0.006714	0.023804	-0.31952	-0.019531	0.048523	-0.055389	-0.028687	0.012512	0.044098	0.044403	-0.019226	-0.67413	-0.066833	-0.12634	-0.55527	0.001221	-0.013428
17.442	0.008545	-0.12116	-0.077667	-0.013885	0.008698	-0.010376	-0.13825	0.004883	0.025177	-0.037384	0.02121	-0.001068	-0.017242	-0.041199	-0.068665	-0.009308	0.019226	-0.3717	0.1828	-0.041351	-0.002594	-0.063324	0.059052	0.079041	0.03418	-0.019989	0.26642	-0.22919	-0.14816	-0.63934	0.003204	-0.015259
17.443	0.016937	-0.15747	-0.095673	0.000763	0.007782	-0.00473	-0.13779	0.005035	0.024109	-0.036774	0.055237	-0.001373	-0.04715	-0.074921	-0.064392	-0.013733	0.018616	-0.35889	0.016479	-0.12131	0.010071	-0.053253	0.075073	0.051422	0.015869	-0.012512	0.23514	0.21255	-0.14389	-0.39917	0.001068	-0.011902
